<?xml version="1.0" encoding="utf-8"?>
<!DOCTYPE svg PUBLIC "-//W3C//DTD SVG 1.1//EN" "http://www.w3.org/Graphics/SVG/1.1/DTD/svg11.dtd"><svg version='1.1' xmlns='http://www.w3.org/2000/svg' width='1000px' height='1000px' viewBox='0 0 100 100'><g class="drawcontainer"><rect x="0" y="0" width="100%" height="100%" stroke="none" fill="white"></rect><svg class="svgcontainer" width="90" height="90" x="5" y="5" viewBox="0 0 1000 1000" preserveAspectRatio="none"><g class="container"><rect x="0" y="0" width="100%" height="100%" stroke="none" fill="white"></rect><line x1="35.194615582105534" y1="1000" x2="35.194615582105534" y2="0" class="break-lines" stroke-width="0.6666666666666666" stroke="#7c7c7c" style="stroke-dasharray: 3, 3;"></line><line x1="35.36098120416093" y1="1000" x2="35.36098120416093" y2="0" class="break-lines" stroke-width="0.6666666666666666" stroke="#7c7c7c" style="stroke-dasharray: 3, 3;"></line><line x1="35.55678797631764" y1="1000" x2="35.55678797631764" y2="0" class="break-lines" stroke-width="0.6666666666666666" stroke="#7c7c7c" style="stroke-dasharray: 3, 3;"></line><line x1="35.88385765626256" y1="1000" x2="35.88385765626256" y2="0" class="break-lines" stroke-width="0.6666666666666666" stroke="#7c7c7c" style="stroke-dasharray: 3, 3;"></line><line x1="46.647710862149445" y1="1000" x2="46.647710862149445" y2="0" class="break-lines" stroke-width="0.6666666666666666" stroke="#7c7c7c" style="stroke-dasharray: 3, 3;"></line><line x1="62.64371841248054" y1="1000" x2="62.64371841248054" y2="0" class="break-lines" stroke-width="0.6666666666666666" stroke="#7c7c7c" style="stroke-dasharray: 3, 3;"></line><line x1="77.22571219593061" y1="1000" x2="77.22571219593061" y2="0" class="break-lines" stroke-width="0.6666666666666666" stroke="#7c7c7c" style="stroke-dasharray: 3, 3;"></line><line x1="77.46576454944106" y1="1000" x2="77.46576454944106" y2="0" class="break-lines" stroke-width="0.6666666666666666" stroke="#7c7c7c" style="stroke-dasharray: 3, 3;"></line><line x1="78.40647358493308" y1="1000" x2="78.40647358493308" y2="0" class="break-lines" stroke-width="0.6666666666666666" stroke="#7c7c7c" style="stroke-dasharray: 3, 3;"></line><line x1="82.68245377740705" y1="1000" x2="82.68245377740705" y2="0" class="break-lines" stroke-width="0.6666666666666666" stroke="#7c7c7c" style="stroke-dasharray: 3, 3;"></line><line x1="83.0049189895474" y1="1000" x2="83.0049189895474" y2="0" class="break-lines" stroke-width="0.6666666666666666" stroke="#7c7c7c" style="stroke-dasharray: 3, 3;"></line><line x1="83.60014555607032" y1="1000" x2="83.60014555607032" y2="0" class="break-lines" stroke-width="0.6666666666666666" stroke="#7c7c7c" style="stroke-dasharray: 3, 3;"></line><line x1="83.95485220723067" y1="1000" x2="83.95485220723067" y2="0" class="break-lines" stroke-width="0.6666666666666666" stroke="#7c7c7c" style="stroke-dasharray: 3, 3;"></line><line x1="85.9512752472537" y1="1000" x2="85.9512752472537" y2="0" class="break-lines" stroke-width="0.6666666666666666" stroke="#7c7c7c" style="stroke-dasharray: 3, 3;"></line><line x1="92.54333832077835" y1="1000" x2="92.54333832077835" y2="0" class="break-lines" stroke-width="0.6666666666666666" stroke="#7c7c7c" style="stroke-dasharray: 3, 3;"></line><line x1="94.473758906742" y1="1000" x2="94.473758906742" y2="0" class="break-lines" stroke-width="0.6666666666666666" stroke="#7c7c7c" style="stroke-dasharray: 3, 3;"></line><line x1="112.31409467591843" y1="1000" x2="112.31409467591843" y2="0" class="break-lines" stroke-width="0.6666666666666666" stroke="#7c7c7c" style="stroke-dasharray: 3, 3;"></line><line x1="112.57714395748144" y1="1000" x2="112.57714395748144" y2="0" class="break-lines" stroke-width="0.6666666666666666" stroke="#7c7c7c" style="stroke-dasharray: 3, 3;"></line><line x1="142.11896724063968" y1="1000" x2="142.11896724063968" y2="0" class="break-lines" stroke-width="0.6666666666666666" stroke="#7c7c7c" style="stroke-dasharray: 3, 3;"></line><line x1="144.66395214146658" y1="1000" x2="144.66395214146658" y2="0" class="break-lines" stroke-width="0.6666666666666666" stroke="#7c7c7c" style="stroke-dasharray: 3, 3;"></line><line x1="160.10958348771982" y1="1000" x2="160.10958348771982" y2="0" class="break-lines" stroke-width="0.6666666666666666" stroke="#7c7c7c" style="stroke-dasharray: 3, 3;"></line><line x1="162.06903864826123" y1="1000" x2="162.06903864826123" y2="0" class="break-lines" stroke-width="0.6666666666666666" stroke="#7c7c7c" style="stroke-dasharray: 3, 3;"></line><line x1="168.69003465248272" y1="1000" x2="168.69003465248272" y2="0" class="break-lines" stroke-width="0.6666666666666666" stroke="#7c7c7c" style="stroke-dasharray: 3, 3;"></line><line x1="174.49412386814268" y1="1000" x2="174.49412386814268" y2="0" class="break-lines" stroke-width="0.6666666666666666" stroke="#7c7c7c" style="stroke-dasharray: 3, 3;"></line><line x1="180.92767839160513" y1="1000" x2="180.92767839160513" y2="0" class="break-lines" stroke-width="0.6666666666666666" stroke="#7c7c7c" style="stroke-dasharray: 3, 3;"></line><line x1="184.53742360236274" y1="1000" x2="184.53742360236274" y2="0" class="break-lines" stroke-width="0.6666666666666666" stroke="#7c7c7c" style="stroke-dasharray: 3, 3;"></line><line x1="185.9101547070181" y1="1000" x2="185.9101547070181" y2="0" class="break-lines" stroke-width="0.6666666666666666" stroke="#7c7c7c" style="stroke-dasharray: 3, 3;"></line><line x1="194.387406839508" y1="1000" x2="194.387406839508" y2="0" class="break-lines" stroke-width="0.6666666666666666" stroke="#7c7c7c" style="stroke-dasharray: 3, 3;"></line><line x1="201.73905463496328" y1="1000" x2="201.73905463496328" y2="0" class="break-lines" stroke-width="0.6666666666666666" stroke="#7c7c7c" style="stroke-dasharray: 3, 3;"></line><line x1="203.03631007585986" y1="1000" x2="203.03631007585986" y2="0" class="break-lines" stroke-width="0.6666666666666666" stroke="#7c7c7c" style="stroke-dasharray: 3, 3;"></line><line x1="210.47683019857595" y1="1000" x2="210.47683019857595" y2="0" class="break-lines" stroke-width="0.6666666666666666" stroke="#7c7c7c" style="stroke-dasharray: 3, 3;"></line><line x1="215.3725077218984" y1="1000" x2="215.3725077218984" y2="0" class="break-lines" stroke-width="0.6666666666666666" stroke="#7c7c7c" style="stroke-dasharray: 3, 3;"></line><line x1="216.50309769129092" y1="1000" x2="216.50309769129092" y2="0" class="break-lines" stroke-width="0.6666666666666666" stroke="#7c7c7c" style="stroke-dasharray: 3, 3;"></line><line x1="220.9125667925447" y1="1000" x2="220.9125667925447" y2="0" class="break-lines" stroke-width="0.6666666666666666" stroke="#7c7c7c" style="stroke-dasharray: 3, 3;"></line><line x1="221.17555508777917" y1="1000" x2="221.17555508777917" y2="0" class="break-lines" stroke-width="0.6666666666666666" stroke="#7c7c7c" style="stroke-dasharray: 3, 3;"></line><line x1="223.8969022863475" y1="1000" x2="223.8969022863475" y2="0" class="break-lines" stroke-width="0.6666666666666666" stroke="#7c7c7c" style="stroke-dasharray: 3, 3;"></line><line x1="225.90494322195687" y1="1000" x2="225.90494322195687" y2="0" class="break-lines" stroke-width="0.6666666666666666" stroke="#7c7c7c" style="stroke-dasharray: 3, 3;"></line><line x1="228.47835283407613" y1="1000" x2="228.47835283407613" y2="0" class="break-lines" stroke-width="0.6666666666666666" stroke="#7c7c7c" style="stroke-dasharray: 3, 3;"></line><line x1="228.72423954634996" y1="1000" x2="228.72423954634996" y2="0" class="break-lines" stroke-width="0.6666666666666666" stroke="#7c7c7c" style="stroke-dasharray: 3, 3;"></line><line x1="231.26539247286712" y1="1000" x2="231.26539247286712" y2="0" class="break-lines" stroke-width="0.6666666666666666" stroke="#7c7c7c" style="stroke-dasharray: 3, 3;"></line><line x1="233.42913658742594" y1="1000" x2="233.42913658742594" y2="0" class="break-lines" stroke-width="0.6666666666666666" stroke="#7c7c7c" style="stroke-dasharray: 3, 3;"></line><line x1="235.59176261929494" y1="1000" x2="235.59176261929494" y2="0" class="break-lines" stroke-width="0.6666666666666666" stroke="#7c7c7c" style="stroke-dasharray: 3, 3;"></line><line x1="237.71220135839832" y1="1000" x2="237.71220135839832" y2="0" class="break-lines" stroke-width="0.6666666666666666" stroke="#7c7c7c" style="stroke-dasharray: 3, 3;"></line><line x1="239.6879551152413" y1="1000" x2="239.6879551152413" y2="0" class="break-lines" stroke-width="0.6666666666666666" stroke="#7c7c7c" style="stroke-dasharray: 3, 3;"></line><line x1="241.64091523179349" y1="1000" x2="241.64091523179349" y2="0" class="break-lines" stroke-width="0.6666666666666666" stroke="#7c7c7c" style="stroke-dasharray: 3, 3;"></line><line x1="243.75423381704016" y1="1000" x2="243.75423381704016" y2="0" class="break-lines" stroke-width="0.6666666666666666" stroke="#7c7c7c" style="stroke-dasharray: 3, 3;"></line><line x1="318.28348631863963" y1="1000" x2="318.28348631863963" y2="0" class="break-lines" stroke-width="0.6666666666666666" stroke="#7c7c7c" style="stroke-dasharray: 3, 3;"></line><line x1="420.69580003570854" y1="1000" x2="420.69580003570854" y2="0" class="break-lines" stroke-width="0.6666666666666666" stroke="#7c7c7c" style="stroke-dasharray: 3, 3;"></line><line x1="460.4150319895401" y1="1000" x2="460.4150319895401" y2="0" class="break-lines" stroke-width="0.6666666666666666" stroke="#7c7c7c" style="stroke-dasharray: 3, 3;"></line><line x1="460.8691971781565" y1="1000" x2="460.8691971781565" y2="0" class="break-lines" stroke-width="0.6666666666666666" stroke="#7c7c7c" style="stroke-dasharray: 3, 3;"></line><line x1="492.94059614979795" y1="1000" x2="492.94059614979795" y2="0" class="break-lines" stroke-width="0.6666666666666666" stroke="#7c7c7c" style="stroke-dasharray: 3, 3;"></line><line x1="577.1065982730065" y1="1000" x2="577.1065982730065" y2="0" class="break-lines" stroke-width="0.6666666666666666" stroke="#7c7c7c" style="stroke-dasharray: 3, 3;"></line><line x1="581.2503651874059" y1="1000" x2="581.2503651874059" y2="0" class="break-lines" stroke-width="0.6666666666666666" stroke="#7c7c7c" style="stroke-dasharray: 3, 3;"></line><line x1="594.6478215116783" y1="1000" x2="594.6478215116783" y2="0" class="break-lines" stroke-width="0.6666666666666666" stroke="#7c7c7c" style="stroke-dasharray: 3, 3;"></line><line x1="606.3315874150261" y1="1000" x2="606.3315874150261" y2="0" class="break-lines" stroke-width="0.6666666666666666" stroke="#7c7c7c" style="stroke-dasharray: 3, 3;"></line><line x1="691.4551867045374" y1="1000" x2="691.4551867045374" y2="0" class="break-lines" stroke-width="0.6666666666666666" stroke="#7c7c7c" style="stroke-dasharray: 3, 3;"></line><line x1="691.584904625336" y1="1000" x2="691.584904625336" y2="0" class="break-lines" stroke-width="0.6666666666666666" stroke="#7c7c7c" style="stroke-dasharray: 3, 3;"></line><line x1="691.6949036332409" y1="1000" x2="691.6949036332409" y2="0" class="break-lines" stroke-width="0.6666666666666666" stroke="#7c7c7c" style="stroke-dasharray: 3, 3;"></line><line x1="691.9061196177413" y1="1000" x2="691.9061196177413" y2="0" class="break-lines" stroke-width="0.6666666666666666" stroke="#7c7c7c" style="stroke-dasharray: 3, 3;"></line><line x1="765.0390748808998" y1="1000" x2="765.0390748808998" y2="0" class="break-lines" stroke-width="0.6666666666666666" stroke="#7c7c7c" style="stroke-dasharray: 3, 3;"></line><line x1="765.1764465859297" y1="1000" x2="765.1764465859297" y2="0" class="break-lines" stroke-width="0.6666666666666666" stroke="#7c7c7c" style="stroke-dasharray: 3, 3;"></line><line x1="765.4547017920747" y1="1000" x2="765.4547017920747" y2="0" class="break-lines" stroke-width="0.6666666666666666" stroke="#7c7c7c" style="stroke-dasharray: 3, 3;"></line><line x1="893.637398495816" y1="1000" x2="893.637398495816" y2="0" class="break-lines" stroke-width="0.6666666666666666" stroke="#7c7c7c" style="stroke-dasharray: 3, 3;"></line><line x1="897.719137231899" y1="1000" x2="897.719137231899" y2="0" class="break-lines" stroke-width="0.6666666666666666" stroke="#7c7c7c" style="stroke-dasharray: 3, 3;"></line><line x1="903.3461882180096" y1="1000" x2="903.3461882180096" y2="0" class="break-lines" stroke-width="0.6666666666666666" stroke="#7c7c7c" style="stroke-dasharray: 3, 3;"></line><line x1="904.6622579412599" y1="1000" x2="904.6622579412599" y2="0" class="break-lines" stroke-width="0.6666666666666666" stroke="#7c7c7c" style="stroke-dasharray: 3, 3;"></line><line x1="907.8686497394607" y1="1000" x2="907.8686497394607" y2="0" class="break-lines" stroke-width="0.6666666666666666" stroke="#7c7c7c" style="stroke-dasharray: 3, 3;"></line><line x1="910.4719833101155" y1="1000" x2="910.4719833101155" y2="0" class="break-lines" stroke-width="0.6666666666666666" stroke="#7c7c7c" style="stroke-dasharray: 3, 3;"></line><line x1="923.6392569017124" y1="1000" x2="923.6392569017124" y2="0" class="break-lines" stroke-width="0.6666666666666666" stroke="#7c7c7c" style="stroke-dasharray: 3, 3;"></line><line x1="927.8675508674644" y1="1000" x2="927.8675508674644" y2="0" class="break-lines" stroke-width="0.6666666666666666" stroke="#7c7c7c" style="stroke-dasharray: 3, 3;"></line><line x1="928.7613919094756" y1="1000" x2="928.7613919094756" y2="0" class="break-lines" stroke-width="0.6666666666666666" stroke="#7c7c7c" style="stroke-dasharray: 3, 3;"></line><line x1="928.9276660520381" y1="1000" x2="928.9276660520381" y2="0" class="break-lines" stroke-width="0.6666666666666666" stroke="#7c7c7c" style="stroke-dasharray: 3, 3;"></line><line x1="938.5688981687947" y1="1000" x2="938.5688981687947" y2="0" class="break-lines" stroke-width="0.6666666666666666" stroke="#7c7c7c" style="stroke-dasharray: 3, 3;"></line><line x1="938.7091768888183" y1="1000" x2="938.7091768888183" y2="0" class="break-lines" stroke-width="0.6666666666666666" stroke="#7c7c7c" style="stroke-dasharray: 3, 3;"></line><line x1="945.9916306123541" y1="1000" x2="945.9916306123541" y2="0" class="break-lines" stroke-width="0.6666666666666666" stroke="#7c7c7c" style="stroke-dasharray: 3, 3;"></line><line x1="952.1055964455055" y1="1000" x2="952.1055964455055" y2="0" class="break-lines" stroke-width="0.6666666666666666" stroke="#7c7c7c" style="stroke-dasharray: 3, 3;"></line><line x1="955.4251585406951" y1="1000" x2="955.4251585406951" y2="0" class="break-lines" stroke-width="0.6666666666666666" stroke="#7c7c7c" style="stroke-dasharray: 3, 3;"></line><line x1="958.2707043973294" y1="1000" x2="958.2707043973294" y2="0" class="break-lines" stroke-width="0.6666666666666666" stroke="#7c7c7c" style="stroke-dasharray: 3, 3;"></line><line x1="959.0380394651783" y1="1000" x2="959.0380394651783" y2="0" class="break-lines" stroke-width="0.6666666666666666" stroke="#7c7c7c" style="stroke-dasharray: 3, 3;"></line><line x1="961.0518944307748" y1="1000" x2="961.0518944307748" y2="0" class="break-lines" stroke-width="0.6666666666666666" stroke="#7c7c7c" style="stroke-dasharray: 3, 3;"></line><line x1="965.3428569312928" y1="1000" x2="965.3428569312928" y2="0" class="break-lines" stroke-width="0.6666666666666666" stroke="#7c7c7c" style="stroke-dasharray: 3, 3;"></line><line x1="967.9572798493533" y1="1000" x2="967.9572798493533" y2="0" class="break-lines" stroke-width="0.6666666666666666" stroke="#7c7c7c" style="stroke-dasharray: 3, 3;"></line><line x1="968.1157121665049" y1="1000" x2="968.1157121665049" y2="0" class="break-lines" stroke-width="0.6666666666666666" stroke="#7c7c7c" style="stroke-dasharray: 3, 3;"></line><line x1="969.2286415115918" y1="1000" x2="969.2286415115918" y2="0" class="break-lines" stroke-width="0.6666666666666666" stroke="#7c7c7c" style="stroke-dasharray: 3, 3;"></line><line x1="972.5065601087786" y1="1000" x2="972.5065601087786" y2="0" class="break-lines" stroke-width="0.6666666666666666" stroke="#7c7c7c" style="stroke-dasharray: 3, 3;"></line><line x1="979.1788506974939" y1="1000" x2="979.1788506974939" y2="0" class="break-lines" stroke-width="0.6666666666666666" stroke="#7c7c7c" style="stroke-dasharray: 3, 3;"></line><line x1="981.8371177035787" y1="1000" x2="981.8371177035787" y2="0" class="break-lines" stroke-width="0.6666666666666666" stroke="#7c7c7c" style="stroke-dasharray: 3, 3;"></line><line x1="0" y1="999.6938758513578" x2="1000" y2="999.6938758513578" class="break-lines" stroke-width="0.6666666666666666" stroke="#7c7c7c" style="stroke-dasharray: 3, 3;"></line><line x1="0" y1="990.3140073429441" x2="1000" y2="990.3140073429441" class="break-lines" stroke-width="0.6666666666666666" stroke="#7c7c7c" style="stroke-dasharray: 3, 3;"></line><line x1="0" y1="962.9650242410555" x2="1000" y2="962.9650242410555" class="break-lines" stroke-width="0.6666666666666666" stroke="#7c7c7c" style="stroke-dasharray: 3, 3;"></line><line x1="0" y1="739.7671995356832" x2="1000" y2="739.7671995356832" class="break-lines" stroke-width="0.6666666666666666" stroke="#7c7c7c" style="stroke-dasharray: 3, 3;"></line><line x1="0" y1="739.3534539421753" x2="1000" y2="739.3534539421753" class="break-lines" stroke-width="0.6666666666666666" stroke="#7c7c7c" style="stroke-dasharray: 3, 3;"></line><line x1="0" y1="543.7713977461086" x2="1000" y2="543.7713977461086" class="break-lines" stroke-width="0.6666666666666666" stroke="#7c7c7c" style="stroke-dasharray: 3, 3;"></line><line x1="0" y1="541.3591759130683" x2="1000" y2="541.3591759130683" class="break-lines" stroke-width="0.6666666666666666" stroke="#7c7c7c" style="stroke-dasharray: 3, 3;"></line><line x1="0" y1="365.4206842823055" x2="1000" y2="365.4206842823055" class="break-lines" stroke-width="0.6666666666666666" stroke="#7c7c7c" style="stroke-dasharray: 3, 3;"></line><line x1="0" y1="363.83740779208495" x2="1000" y2="363.83740779208495" class="break-lines" stroke-width="0.6666666666666666" stroke="#7c7c7c" style="stroke-dasharray: 3, 3;"></line><line x1="0" y1="200.2364471252739" x2="1000" y2="200.2364471252739" class="break-lines" stroke-width="0.6666666666666666" stroke="#7c7c7c" style="stroke-dasharray: 3, 3;"></line><line x1="0" y1="197.74971546206382" x2="1000" y2="197.74971546206382" class="break-lines" stroke-width="0.6666666666666666" stroke="#7c7c7c" style="stroke-dasharray: 3, 3;"></line><line x1="0" y1="33.95005031866128" x2="1000" y2="33.95005031866128" class="break-lines" stroke-width="0.6666666666666666" stroke="#7c7c7c" style="stroke-dasharray: 3, 3;"></line><line x1="0" y1="33.09216797110946" x2="1000" y2="33.09216797110946" class="break-lines" stroke-width="0.6666666666666666" stroke="#7c7c7c" style="stroke-dasharray: 3, 3;"></line><line x1="0" y1="7.575894304775943" x2="1000" y2="7.575894304775943" class="break-lines" stroke-width="0.6666666666666666" stroke="#7c7c7c" style="stroke-dasharray: 3, 3;"></line><path d="" class="content-lines s_0 idy_0" stroke-width="2.5" stroke="#ffd84b" stroke-linecap="round" style="display: none;"></path><path d="" class="content-lines s_0_01 idy_0" stroke-width="2.5" stroke="#ffd84b" stroke-linecap="round"></path><path d="" class="content-lines s_0_02 idy_0" stroke-width="2.5" stroke="#ffd84b" stroke-linecap="round"></path><path d="" class="content-lines s_0_03 idy_0" stroke-width="2.5" stroke="#ffd84b" stroke-linecap="round"></path><path d="" class="content-lines s_0_05 idy_0" stroke-width="2.5" stroke="#ffd84b" stroke-linecap="round"></path><path d="" class="content-lines s_1 idy_0" stroke-width="2.5" stroke="#ffd84b" stroke-linecap="round"></path><path d="" class="content-lines s_2 idy_0" stroke-width="2.5" stroke="#ffd84b" stroke-linecap="round"></path><path d="" class="content-lines s_0 idy_1" stroke-width="2.5" stroke="#d5670b" stroke-linecap="round" style="display: none;"></path><path d="" class="content-lines s_0_01 idy_1" stroke-width="2.5" stroke="#d5670b" stroke-linecap="round"></path><path d="" class="content-lines s_0_02 idy_1" stroke-width="2.5" stroke="#d5670b" stroke-linecap="round"></path><path d="" class="content-lines s_0_03 idy_1" stroke-width="2.5" stroke="#d5670b" stroke-linecap="round"></path><path d="M979.2992529566084 3.4632703412984256 L979.467016182026 3.2680099179270883 M208.35664556917476 979.8066184294196 L208.5202566420579 979.6269362588963 M783.664675698515 186.6443623750141 L783.8476600950967 186.46240504206048 M774.4705343562645 197.74684193887208 L774.1765040198045 197.3466012085969 M979.4687593745833 3.2097323628329377 L979.624244019189 2.987601366661579 M249.9752611499386 28.844057041258225 L250.3274978547932 28.533278202506494 M957.7351631176681 757.4665369179336 L957.6057450463181 757.3194584512272 M995.0274136341981 30.223327300233336 L995.380819243683 29.827455995053697 M269.7949844447 968.350278051984 L269.99559389022903 968.0809183017559 M945.5589580223528 736.1248105962065 L945.4390284072845 735.8669727694785 M213.94334393456987 976.5939777549785 L214.1508346708355 976.362259071257 M905.7717568053666 22.092801273356258 L906.2700354382915 21.538774869699637 M269.1765678267508 969.019621098206 L269.57439181218695 968.5162675018262 M215.35538072796749 22.77050049718912 L214.91568962799056 22.238432541941847 M268.34153793422564 969.790984654259 L268.5163552449775 969.6213841667982 M208.6505437685895 979.3860821370374 L208.89558175445785 979.0801528035269 M979.6268003627935 32.965037182346464 L979.9934654165411 32.491045009378354 M214.1645006906219 976.3122750746243 L214.5084381726014 975.8762022754936 M464.06443864262303 739.6466020115136 L463.9114341087113 739.4623416853967 M290.72859253702876 967.610655447022 L291.0923251648126 967.1728153963401 M773.6192058674377 543.7591939696479 L773.7585799569214 543.6034810179997 M223.89125088656968 365.23525506539863 L223.75525137393177 365.09403496800803 M277.8597707907108 967.0796520173155 L278.14939486493387 966.6456317347504 M255.8176497799199 11.453578177176269 L255.61989652744404 11.124208408719255 M277.36252892537095 967.6370320243097 L277.7362379000647 967.1728153963401 M278.1650886801441 9.559314117705753 L278.69981172656406 8.996423625559373 M231.9896356174104 751.1225630557789 L232.1510156071079 750.9016079080806 M956.6017169552223 757.3184982909356 L956.7468644171408 757.1246920233682 M215.3241862209207 21.92345126249313 L215.02926650050296 21.52637627810725 M945.9916001191897 736.0749935839724 L945.5761561670002 735.4504719333945 M956.3540616394209 4.995616589961173 L956.583060220884 4.681838989718699" class="content-lines s_0_05 idy_1" stroke-width="2.5" stroke="#d5670b" stroke-linecap="round"></path><path d="M180.9171531677384 391.57850505018564 L180.33500308649266 390.7589595374676 M966.814812792478 16.02994564616074 L966.0032372254694 14.96132898763858 M928.7613664985051 376.6420010764649 L927.9209494802926 375.7202263234178 M206.8045943298439 18.95168558296075 L207.76770059449117 17.71450513178536 M204.31694674223002 27.260265682475392 L205.04192680490982 26.13312794994465 M208.33483787452866 21.525165641217768 L207.3916233173726 20.175145482722087 M86.30348654113806 13.462337872586204 L87.12634457892601 12.251443548815928 M265.85179648266535 761.8213926245579 L266.49721987976835 760.9830265785866 M205.93691642277514 20.17419228011363 L205.059999086933 19.179271402818244" class="content-lines s_1 idy_1" stroke-width="2.5" stroke="#d5670b" stroke-linecap="round"></path><path d="M904.7155752389835 24.284770684708747 L906.4960406074623 22.102604649087766 M906.0619958250691 24.308231992705146 L904.7155752389835 22.618426413892735 M201.73900889521684 370.62924772651786 L197.56031206114778 365.59142582982304 M182.0277345391767 739.3532800000935 L184.53483676559392 735.849550730563 M927.8675152921058 384.3915730710995 L923.6392721482945 378.1926669051853 M203.0363100758598 378.12218557363053 L201.73905463496325 376.4971699414557 M231.22626466091646 756.5298518496327 L228.72759379441948 753.0548160659197 M179.60205414355065 390.8210568606786 L178.33682160733017 388.95287019811485" class="content-lines s_2 idy_1" stroke-width="2.5" stroke="#d5670b" stroke-linecap="round"></path><path d="" class="content-lines s_0 idy_2" stroke-width="2.5" stroke="#2ebd40" stroke-linecap="round" style="display: none;"></path><path d="" class="content-lines s_0_01 idy_2" stroke-width="2.5" stroke="#2ebd40" stroke-linecap="round"></path><path d="" class="content-lines s_0_02 idy_2" stroke-width="2.5" stroke="#2ebd40" stroke-linecap="round"></path><path d="" class="content-lines s_0_03 idy_2" stroke-width="2.5" stroke="#2ebd40" stroke-linecap="round"></path><path d="M203.70544699037578 982.498678283697 L204.08659121495697 981.9903290707273 M279.4083559737031 11.957516218951127 L279.1209477360835 11.628007296828514 M908.3077919624807 767.6649907787736 L908.0430503103007 767.2748734776607 M298.63338633231626 8.972002157271504 L298.36220554028165 8.633434331527496 M955.970554194609 757.0816935407415 L955.4874255821314 756.5327184151411 M285.56494108611395 965.5889614184077 L285.7470920028724 965.3423463347989 M280.50292335170633 10.831589123309868 L281.0535435010984 10.054367197940905 M258.7794762362985 8.170602282529217 L258.4085116463889 7.73352061932394 M919.7392472602819 371.47526026640605 L920.2390302226441 370.7283738401072 M691.9403075370802 365.23525506539863 L692.0967628807484 365.0371002457857 M207.11120309656457 980.3176463504495 L207.23814105722067 980.1466404109675 M268.17876034116586 24.943009268427318 L267.7697809398015 24.440532340139725 M303.117777138178 964.0519674373187 L303.2525518420511 963.9034696032246 M995.9882379937194 0.6114481637080189 L996.4020912191727 0.009893825614085472 M306.0332743136445 17.696707377973212 L305.8201016844368 17.435571609373824 M185.50707573293968 403.2432976184782 L185.7171329771979 402.9735691110367 M57.98600954311019 191.2232067792438 L57.70116273128919 190.8380711793542 M54.64814138497137 367.99346161455185 L54.75997506492643 367.81178954661243 M951.911644674175 5.3713036559661305 L952.0317928235874 5.206260451049161 M94.47358611214447 498.5699803992322 L94.15977587646235 498.26835787166743 M94.00347299861559 469.2175532719542 L93.78195032459237 468.8928521089732 M48.84999325414974 613.1890595551388 L48.58351857380055 612.8089961063552 M183.40655411229773 735.4496578844515 L183.58580309625657 735.2122617311793 M59.12062461018619 56.73784065878351 L58.85016040751187 56.4429183802107 M940.0680945900598 732.1056561498176 L939.8008880737682 731.7393897869642" class="content-lines s_0_05 idy_2" stroke-width="2.5" stroke="#2ebd40" stroke-linecap="round"></path><path d="M247.63063158493847 768.808228590398 L248.64296398110335 767.6826145905039 M232.03847041998657 750.9017818501624 L231.3306834197602 749.9410649438366 M27.999733144155098 224.68372841818837 L28.92920036642009 223.45376308456696" class="content-lines s_1 idy_2" stroke-width="2.5" stroke="#2ebd40" stroke-linecap="round"></path><path d="M225.90494322195684 760.8749807150414 L228.4783172587178 757.5818187720827 M53.12450469254477 370.6281692856106 L54.77499294832871 368.4212478129044 M918.4177751647621 207.23846475601533 L923.638997709816 200.24106006928378 M178.21762382820424 388.9651713821414 L174.51876234487167 384.2966633135736 M217.62365540963904 375.66352120474346 L220.91253629938038 371.4777372016513 M941.4618913890308 730.8099963707332 L938.8115322768797 727.4614303958723 M168.82728946704967 727.367021591542 L174.49403238864986 719.8357399519122 M946.0940622333261 720.0516299061878 L949.5842640757628 715.3205444342632 M945.7648631140764 735.2065912193118 L943.3828743406533 732.1399575283531 M144.71286825914746 749.8986787373381 L149.49129448366307 743.2578553183439 M938.5688625934362 403.9351974738712 L929.0368671554778 391.5802583863705 M83.95489794697707 764.3551303959599 L85.94886628727647 761.8255394037886 M463.15840541709844 767.4504366996864 L460.97184225127864 764.687457179808 M233.42619907926806 753.029253537575 L232.14891157877338 751.1777374841332 M774.7858590857719 196.2102375880462 L779.6964985883623 189.495203519263 M911.6940985120602 214.57028353157705 L916.7411796781702 207.90001519697182" class="content-lines s_2 idy_2" stroke-width="2.5" stroke="#2ebd40" stroke-linecap="round"></path><path d="" class="content-lines s_0 idy_3" stroke-width="2.5" stroke="#094b09" stroke-linecap="round" style="display: none;"></path><path d="" class="content-lines s_0_01 idy_3" stroke-width="2.5" stroke="#094b09" stroke-linecap="round"></path><path d="" class="content-lines s_0_02 idy_3" stroke-width="2.5" stroke="#094b09" stroke-linecap="round"></path><path d="" class="content-lines s_0_03 idy_3" stroke-width="2.5" stroke="#094b09" stroke-linecap="round"></path><path d="M460.41511838683886 764.8828150107452 L460.8691514384101 764.1881947011926 M277.3664320503973 8.439203645280486 L277.19403386401075 8.228253646128678 M49.11111130197573 604.7138707719707 L48.85015588435917 604.4200756380881 M260.3509160459101 10.010046755492453 L260.01145089469003 9.578788673186637 M605.4297012598419 933.1127084436677 L605.1236921920184 932.7570873362218 M701.2028806221435 351.565571273596 L700.9469769054074 351.17875887203763 M48.583361025785166 632.2034825681716 L48.41009378421698 632.0029064747797 M35.88382208090425 951.9042699037853 L35.68534207467999 951.6149694332971 M604.3431891593996 811.3560759868628 L604.0963317480632 810.9425878276361 M58.28001955079391 156.43282139024507 L57.98611118699109 156.09103215714583 M94.15969456135764 461.53516466700296 L94.00352890275009 461.29843645132496 M605.5889467280406 933.2093297912788 L605.4297419173942 932.9703403285371 M56.99259815537396 183.05954826462084 L56.68344829163089 182.69244697977467 M57.44830324878593 183.43337067150867 L57.20588259285063 183.06237308402967 M93.2197326083902 503.40505540535383 L92.87524624945387 502.94811651408764 M55.19885809605022 343.10059636947256 L55.51640374435525 342.7133108454517 M56.35943809250092 295.78382066176164 L56.68341271627258 295.3781946846333 M50.232726116685214 883.3373936053687 L49.88513453718753 882.9131210370689 M224.21555585295425 999.0505197521601 L224.39747807098067 998.7962651323176 M61.87479770008967 236.64044450356312 L61.62475883528127 236.327543571413 M604.9407687817652 784.0672838029684 L604.7469034077336 783.8298319882299 M904.0091909243134 529.861826950422 L904.1909454299364 529.6134794036782 M53.124387802081735 774.0457568700756 L52.89903315374875 773.6863020791463 M55.516449484101656 336.46421195240646 L55.77194662531414 336.112855904807 M51.811611340572455 822.4506237917897 L51.573078563081395 822.0849279589646 M83.00487324980101 994.0919945717268 L82.68247918837727 993.6847196236628 M604.5779712776856 893.4975593351578 L604.3432399813399 893.1765874904111 M49.56735510795645 675.0274456253226 L49.28971484729092 674.6525795659438 M602.2329503837441 669.7160824107526 L602.056298400942 669.4749360661963 M58.850124832153554 94.99544835317965 L58.61551550846505 94.67679341696294 M595.4561851320505 571.3724298822422 L595.2138508734139 571.0392960071345 M59.34179661282033 57.005196596228984 L59.120680514320675 56.715791760491584 M602.0562221680314 669.6526840007698 L601.8864718047422 669.4195181189275 M59.61369907640932 94.94568004472842 L59.34186776353695 94.5739866889221 M143.53301150068495 956.4325180352544 L143.37900577454644 956.2139284998688 M93.5174881930849 448.781738185412 L93.21978343033065 448.37592435083525 M604.7468525857932 893.534198495273 L604.578017017432 893.3028416110816 M49.289552217081486 604.3251937112952 L49.11127901437921 604.079997995074 M51.57306331649926 829.5203188077269 L51.341574459954245 829.2001958003395 M46.647731190925626 553.3405709010121 L46.87121559185013 553.0349337901989 M50.45488406496404 878.9208441211633 L50.232766774237575 878.6168698966524 M460.4126687693093 769.0320920497044 L460.27877328500585 768.8486875186301 M605.1236362878839 784.0943631062667 L604.9408907544223 783.8443178848041 M61.62468768456464 242.71788343489857 L61.34933441121926 242.34037345587615 M895.4045434337033 39.56362746387401 L895.2056924273138 39.291783820717455 M904.5286826351812 823.2717695716603 L904.3079934409814 822.9703001131277 M52.220722878982016 804.0612790439965 L52.02270535241583 803.7902216190498 M61.157415517506784 217.11616246029018 L60.87898751676431 216.73483271315092" class="content-lines s_0_05 idy_3" stroke-width="2.5" stroke="#094b09" stroke-linecap="round"></path><path d="M606.3315772506378 521.1974657167463 L605.5890026321749 520.1657108642039" class="content-lines s_1 idy_3" stroke-width="2.5" stroke="#094b09" stroke-linecap="round"></path><path d="M463.3699415798237 714.6943807704329 L486.26261350375245 682.925125823788 M784.5745663093194 184.74030189749521 L793.3162348335704 173.1037227348744 M28.959683366300595 223.28730051226216 L35.07899566758713 214.6724501527566 M223.7548549627963 999.2602591144224 L221.27561840632652 995.8663707907216 M758.2592044086448 348.3518730312975 L718.8310754475034 294.26058897818643 M758.2816677063227 272.31393384197804 L765.0390748808996 263.04012825737686 M318.63378162536907 962.9237164754642 L329.21598705170794 948.4977255542111 M692.2160165640088 363.8346664648752 L703.2136252849847 348.3520191426461 M718.8308874063237 294.2603315439053 L703.2140928468368 272.31574979731226 M46.647670204597084 557.7593955476477 L36.46183525619754 543.9009776393837 M26.319930793120953 226.95188446137945 L27.999697568796783 224.68377712197127 M668.8895793783594 434.99749613852055 L691.3980272681157 404.0207004436122 M618.118374473855 504.5743358254688 L668.889548885195 434.9975378846202 M486.26266432569287 682.9250562469551 L487.450993101628 681.1485301038291 M78.4504345634203 995.862300546007 L82.49684188650411 990.3163799129402 M536.9214256869568 613.3481678562241 L554.7344090877842 588.5240862679809 M554.7344192521724 588.3403129796932 L561.3356963435001 579.4269640924124 M876.1732162366687 58.981025576708134 L893.278981843003 34.80453035909261 M0.049653035817357145 263.2682915649459 L6.223426128487593 254.71465490287562 M492.9406317251562 673.5229092367017 L536.9212935499116 613.3483487559893 M561.3358132339632 579.2870868278935 L577.0877636618766 557.5929329753428 M606.452396249664 520.433414685813 L618.1183388984967 504.5743845292517 M793.3162602445406 173.10368794645808 L843.845425657663 103.52697349780874 M487.3155627947231 681.1155298120656 L492.94058598540977 673.3711691222024 M420.695855939843 823.2778645022074 L431.1718485928404 809.3440740110477 M6.07393339066082 254.68408980025754 L26.319900299956682 227.10070234890406 M843.8455171371559 103.52684825950973 L876.1732111544746 59.13490169997215 M329.2160226270663 948.4976768504282 L379.8085579177328 878.9209554440956 M77.01690008921335 541.2771448272804 L62.643723494674575 521.0495940741467 M379.80863923283755 878.9208441211633 L420.6957847891264 823.0641383874297 M431.17188925039267 809.3440183495816 L460.2581395771841 768.8105454989279" class="content-lines s_2 idy_3" stroke-width="2.5" stroke="#094b09" stroke-linecap="round"></path></g></svg></g><svg width="100" height="5" x="0" y="0" viewBox="0 0 100 5" preserveAspectRatio="none"><polygon points="5,0 95,0 100,5 0,5" stroke="none" style="fill: rgb(244, 244, 244);"></polygon></svg><svg width="5" height="100" x="95" y="0" viewBox="0 0 5 100" preserveAspectRatio="none"><polygon points="0,0 5,5 5,95 0,100" stroke="none" style="fill: rgb(244, 244, 244);"></polygon></svg><svg width="100" height="5" x="0" y="95" viewBox="0 0 100 5" preserveAspectRatio="none"><polygon points="0,0 100,0 95,5 5,5" stroke="none" style="fill: rgb(244, 244, 244);"></polygon></svg><svg width="5" height="100" x="0" y="0" viewBox="0 0 5 100" preserveAspectRatio="none"><polygon points="5,0 5,100 0,95 0,5" stroke="#f4f4f4" stroke-width="0px" style="fill: rgb(244, 244, 244);"></polygon></svg><svg class="axis left-axis" width="5" height="90" x="0" y="5" viewBox="0 0 20 500" preserveAspectRatio="none"><g transform="translate(0,500)rotate(-90)"><line x1="50" y1="15" x2="50" y2="20" stroke-width="0.5" stroke="black"></line><text x="50" y="12" text-anchor="middle" font-family="sans-serif" font-size="6.5pt">14.4 M</text><line x1="100" y1="15" x2="100" y2="20" stroke-width="0.5" stroke="black"></line><text x="100" y="12" text-anchor="middle" font-family="sans-serif" font-size="6.5pt">28.7 M</text><line x1="150" y1="15" x2="150" y2="20" stroke-width="0.5" stroke="black"></line><text x="150" y="12" text-anchor="middle" font-family="sans-serif" font-size="6.5pt">43.1 M</text><line x1="200" y1="15" x2="200" y2="20" stroke-width="0.5" stroke="black"></line><text x="200" y="12" text-anchor="middle" font-family="sans-serif" font-size="6.5pt">57.5 M</text><line x1="250" y1="15" x2="250" y2="20" stroke-width="0.5" stroke="black"></line><text x="250" y="12" text-anchor="middle" font-family="sans-serif" font-size="6.5pt">71.9 M</text><line x1="300" y1="15" x2="300" y2="20" stroke-width="0.5" stroke="black"></line><text x="300" y="12" text-anchor="middle" font-family="sans-serif" font-size="6.5pt">86.2 M</text><line x1="350" y1="15" x2="350" y2="20" stroke-width="0.5" stroke="black"></line><text x="350" y="12" text-anchor="middle" font-family="sans-serif" font-size="6.5pt">100.6 M</text><line x1="400" y1="15" x2="400" y2="20" stroke-width="0.5" stroke="black"></line><text x="400" y="12" text-anchor="middle" font-family="sans-serif" font-size="6.5pt">115 M</text><line x1="450" y1="15" x2="450" y2="20" stroke-width="0.5" stroke="black"></line><text x="450" y="12" text-anchor="middle" font-family="sans-serif" font-size="6.5pt">129.4 M</text></g></svg><svg class="axis bottom-axis" width="90" height="5" x="5" y="95" viewBox="0 0 500 20" preserveAspectRatio="none"><line x1="50" y1="0" x2="50" y2="5" stroke-width="0.5" stroke="black"></line><text x="50" y="15" text-anchor="middle" font-family="sans-serif" font-size="6.5pt">19.7 M</text><line x1="100" y1="0" x2="100" y2="5" stroke-width="0.5" stroke="black"></line><text x="100" y="15" text-anchor="middle" font-family="sans-serif" font-size="6.5pt">39.4 M</text><line x1="150" y1="0" x2="150" y2="5" stroke-width="0.5" stroke="black"></line><text x="150" y="15" text-anchor="middle" font-family="sans-serif" font-size="6.5pt">59 M</text><line x1="200" y1="0" x2="200" y2="5" stroke-width="0.5" stroke="black"></line><text x="200" y="15" text-anchor="middle" font-family="sans-serif" font-size="6.5pt">78.7 M</text><line x1="250" y1="0" x2="250" y2="5" stroke-width="0.5" stroke="black"></line><text x="250" y="15" text-anchor="middle" font-family="sans-serif" font-size="6.5pt">98.4 M</text><line x1="300" y1="0" x2="300" y2="5" stroke-width="0.5" stroke="black"></line><text x="300" y="15" text-anchor="middle" font-family="sans-serif" font-size="6.5pt">118.1 M</text><line x1="350" y1="0" x2="350" y2="5" stroke-width="0.5" stroke="black"></line><text x="350" y="15" text-anchor="middle" font-family="sans-serif" font-size="6.5pt">137.7 M</text><line x1="400" y1="0" x2="400" y2="5" stroke-width="0.5" stroke="black"></line><text x="400" y="15" text-anchor="middle" font-family="sans-serif" font-size="6.5pt">157.4 M</text><line x1="450" y1="0" x2="450" y2="5" stroke-width="0.5" stroke="black"></line><text x="450" y="15" text-anchor="middle" font-family="sans-serif" font-size="6.5pt">177.1 M</text></svg><svg class="top-axis axis" width="90" height="5" x="5" y="0" viewBox="0 0 500 20" preserveAspectRatio="none"><text x="250" y="7.5" font-size="6pt" font-family="sans-serif" font-style="italic" text-anchor="middle">dros.contigs</text><svg x="0" y="0" width="17.597307791052767" height="100%"><text x="8.798653895526384" y="17" text-anchor="middle" font-family="sans-serif" font-size="6pt">tig...</text></svg><svg x="17.597307791052767" y="0" width="0.08318281102769731" height="100%"></svg><line x1="17.597307791052767" x2="17.597307791052767" y1="12" y2="20" stroke="black" stroke-width="0.5"></line><svg x="17.680490602080464" y="0" width="0.09790338607835736" height="100%"></svg><line x1="17.680490602080464" x2="17.680490602080464" y1="12" y2="20" stroke="black" stroke-width="0.5"></line><svg x="17.77839398815882" y="0" width="0.16353483997245988" height="100%"></svg><line x1="17.77839398815882" x2="17.77839398815882" y1="12" y2="20" stroke="black" stroke-width="0.5"></line><svg x="17.94192882813128" y="0" width="5.381926602943441" height="100%"></svg><line x1="17.94192882813128" x2="17.94192882813128" y1="12" y2="20" stroke="black" stroke-width="0.5"></line><rect x="23.323855431074723" y="12" width="7.998003775165547" height="8" fill="#969696" stroke="#969696"></rect><svg x="31.32185920624027" y="0" width="7.290996891725037" height="100%"></svg><line x1="31.32185920624027" x2="31.32185920624027" y1="12" y2="20" stroke="black" stroke-width="0.5"></line><svg x="38.612856097965306" y="0" width="0.12002617675522487" height="100%"></svg><line x1="38.612856097965306" x2="38.612856097965306" y1="12" y2="20" stroke="black" stroke-width="0.5"></line><svg x="38.73288227472053" y="0" width="0.47035451774601" height="100%"></svg><line x1="38.73288227472053" x2="38.73288227472053" y1="12" y2="20" stroke="black" stroke-width="0.5"></line><svg x="39.20323679246654" y="0" width="2.137990096236983" height="100%"></svg><line x1="39.20323679246654" x2="39.20323679246654" y1="12" y2="20" stroke="black" stroke-width="0.5"></line><svg x="41.341226888703524" y="0" width="0.16123260607017897" height="100%"></svg><line x1="41.341226888703524" x2="41.341226888703524" y1="12" y2="20" stroke="black" stroke-width="0.5"></line><svg x="41.5024594947737" y="0" width="0.2976132832614553" height="100%"></svg><line x1="41.5024594947737" x2="41.5024594947737" y1="12" y2="20" stroke="black" stroke-width="0.5"></line><svg x="41.80007277803516" y="0" width="0.17735332558017802" height="100%"></svg><line x1="41.80007277803516" x2="41.80007277803516" y1="12" y2="20" stroke="black" stroke-width="0.5"></line><svg x="41.977426103615336" y="0" width="0.998211520011516" height="100%"></svg><line x1="41.977426103615336" x2="41.977426103615336" y1="12" y2="20" stroke="black" stroke-width="0.5"></line><svg x="42.97563762362685" y="0" width="3.296031536762321" height="100%"></svg><line x1="42.97563762362685" x2="42.97563762362685" y1="12" y2="20" stroke="black" stroke-width="0.5"></line><rect x="46.27166916038917" y="12" width="0.9652102929818298" height="8" fill="#969696" stroke="#969696"></rect><svg x="47.236879453371" y="0" width="8.92016788458821" height="100%"><text x="4.460083942294105" y="17" text-anchor="middle" font-family="sans-serif" font-size="6pt">t...</text></svg><line x1="47.236879453371" x2="47.236879453371" y1="12" y2="20" stroke="black" stroke-width="0.5"></line><svg x="56.15704733795921" y="0" width="0.13152464078150672" height="100%"></svg><line x1="56.15704733795921" x2="56.15704733795921" y1="12" y2="20" stroke="black" stroke-width="0.5"></line><svg x="56.28857197874072" y="0" width="14.770911641579119" height="100%"><text x="7.385455820789559" y="17" text-anchor="middle" font-family="sans-serif" font-size="6pt">ti...</text></svg><line x1="56.28857197874072" x2="56.28857197874072" y1="12" y2="20" stroke="black" stroke-width="0.5"></line><rect x="71.05948362031984" y="12" width="1.272492450413452" height="8" fill="#969696" stroke="#969696"></rect><svg x="72.33197607073329" y="0" width="7.722815673126618" height="100%"></svg><line x1="72.33197607073329" x2="72.33197607073329" y1="12" y2="20" stroke="black" stroke-width="0.5"></line><rect x="80.05479174385991" y="12" width="0.9797275802707048" height="8" fill="#969696" stroke="#969696"></rect><svg x="81.03451932413061" y="0" width="3.310498002110748" height="100%"></svg><line x1="81.03451932413061" x2="81.03451932413061" y1="12" y2="20" stroke="black" stroke-width="0.5"></line><svg x="84.34501732624136" y="0" width="2.9020446078299784" height="100%"></svg><line x1="84.34501732624136" x2="84.34501732624136" y1="12" y2="20" stroke="black" stroke-width="0.5"></line><svg x="87.24706193407134" y="0" width="3.216777261731224" height="100%"></svg><line x1="87.24706193407134" x2="87.24706193407134" y1="12" y2="20" stroke="black" stroke-width="0.5"></line><svg x="90.46383919580256" y="0" width="1.8048726053788045" height="100%"></svg><line x1="90.46383919580256" x2="90.46383919580256" y1="12" y2="20" stroke="black" stroke-width="0.5"></line><rect x="92.26871180118137" y="12" width="0.6863655523276861" height="8" fill="#969696" stroke="#969696"></rect><svg x="92.95507735350905" y="0" width="4.238626066244947" height="100%"></svg><line x1="92.95507735350905" x2="92.95507735350905" y1="12" y2="20" stroke="black" stroke-width="0.5"></line><svg x="97.193703419754" y="0" width="3.675823897727639" height="100%"></svg><line x1="97.193703419754" x2="97.193703419754" y1="12" y2="20" stroke="black" stroke-width="0.5"></line><svg x="100.86952731748164" y="0" width="0.6486277204482889" height="100%"></svg><line x1="100.86952731748164" x2="100.86952731748164" y1="12" y2="20" stroke="black" stroke-width="0.5"></line><svg x="101.51815503792993" y="0" width="3.720260061358047" height="100%"></svg><line x1="101.51815503792993" x2="101.51815503792993" y1="12" y2="20" stroke="black" stroke-width="0.5"></line><svg x="105.23841509928798" y="0" width="2.4478387616612167" height="100%"></svg><line x1="105.23841509928798" x2="105.23841509928798" y1="12" y2="20" stroke="black" stroke-width="0.5"></line><rect x="107.6862538609492" y="12" width="0.5652949846962656" height="8" fill="#969696" stroke="#969696"></rect><svg x="108.25154884564546" y="0" width="2.2047345506268954" height="100%"></svg><line x1="108.25154884564546" x2="108.25154884564546" y1="12" y2="20" stroke="black" stroke-width="0.5"></line><svg x="110.45628339627235" y="0" width="0.13149414761723222" height="100%"></svg><line x1="110.45628339627235" x2="110.45628339627235" y1="12" y2="20" stroke="black" stroke-width="0.5"></line><svg x="110.58777754388959" y="0" width="1.3606735992841692" height="100%"></svg><line x1="110.58777754388959" x2="110.58777754388959" y1="12" y2="20" stroke="black" stroke-width="0.5"></line><rect x="111.94845114317376" y="12" width="1.0040204678046791" height="8" fill="#969696" stroke="#969696"></rect><svg x="112.95247161097844" y="0" width="1.2867048060596318" height="100%"></svg><line x1="112.95247161097844" x2="112.95247161097844" y1="12" y2="20" stroke="black" stroke-width="0.5"></line><svg x="114.23917641703807" y="0" width="0.12294335613691487" height="100%"></svg><line x1="114.23917641703807" x2="114.23917641703807" y1="12" y2="20" stroke="black" stroke-width="0.5"></line><svg x="114.36211977317498" y="0" width="1.2705764632585783" height="100%"></svg><line x1="114.36211977317498" x2="114.36211977317498" y1="12" y2="20" stroke="black" stroke-width="0.5"></line><svg x="115.63269623643356" y="0" width="1.081872057279412" height="100%"></svg><line x1="115.63269623643356" x2="115.63269623643356" y1="12" y2="20" stroke="black" stroke-width="0.5"></line><rect x="116.71456829371297" y="12" width="1.081313015934498" height="8" fill="#969696" stroke="#969696"></rect><svg x="117.79588130964747" y="0" width="1.0602193695516888" height="100%"></svg><line x1="117.79588130964747" x2="117.79588130964747" y1="12" y2="20" stroke="black" stroke-width="0.5"></line><svg x="118.85610067919916" y="0" width="0.9878768784214884" height="100%"></svg><line x1="118.85610067919916" x2="118.85610067919916" y1="12" y2="20" stroke="black" stroke-width="0.5"></line><svg x="119.84397755762065" y="0" width="0.9764800582760955" height="100%"></svg><line x1="119.84397755762065" x2="119.84397755762065" y1="12" y2="20" stroke="black" stroke-width="0.5"></line><svg x="120.82045761589674" y="0" width="1.056659292623337" height="100%"></svg><line x1="120.82045761589674" x2="120.82045761589674" y1="12" y2="20" stroke="black" stroke-width="0.5"></line><rect x="121.87711690852008" y="12" width="37.264626250799736" height="8" fill="#969696" stroke="#969696"></rect><svg x="159.14174315931982" y="0" width="51.206156858534456" height="100%"><text x="25.603078429267228" y="17" text-anchor="middle" font-family="sans-serif" font-size="6pt">tig00000499</text></svg><line x1="159.14174315931982" x2="159.14174315931982" y1="12" y2="20" stroke="black" stroke-width="0.5"></line><svg x="210.34790001785427" y="0" width="19.85961597691579" height="100%"><text x="9.929807988457895" y="17" text-anchor="middle" font-family="sans-serif" font-size="6pt">tig0...</text></svg><line x1="210.34790001785427" x2="210.34790001785427" y1="12" y2="20" stroke="black" stroke-width="0.5"></line><svg x="230.20751599477006" y="0" width="0.22708259430820021" height="100%"></svg><line x1="230.20751599477006" x2="230.20751599477006" y1="12" y2="20" stroke="black" stroke-width="0.5"></line><svg x="230.43459858907826" y="0" width="16.035699485820714" height="100%"><text x="8.017849742910357" y="17" text-anchor="middle" font-family="sans-serif" font-size="6pt">tig...</text></svg><line x1="230.43459858907826" x2="230.43459858907826" y1="12" y2="20" stroke="black" stroke-width="0.5"></line><svg x="246.47029807489898" y="0" width="42.08300106160428" height="100%"><text x="21.04150053080214" y="17" text-anchor="middle" font-family="sans-serif" font-size="6pt">tig0000...</text></svg><line x1="246.47029807489898" x2="246.47029807489898" y1="12" y2="20" stroke="black" stroke-width="0.5"></line><rect x="288.55329913650326" y="12" width="2.0718834571997036" height="8" fill="#969696" stroke="#969696"></rect><svg x="290.62518259370296" y="0" width="6.698728162136206" height="100%"></svg><line x1="290.62518259370296" x2="290.62518259370296" y1="12" y2="20" stroke="black" stroke-width="0.5"></line><rect x="297.32391075583917" y="12" width="5.841882951673881" height="8" fill="#969696" stroke="#969696"></rect><svg x="303.16579370751305" y="0" width="42.56179964475564" height="100%"><text x="21.28089982237782" y="17" text-anchor="middle" font-family="sans-serif" font-size="6pt">tig0000...</text></svg><line x1="303.16579370751305" x2="303.16579370751305" y1="12" y2="20" stroke="black" stroke-width="0.5"></line><svg x="345.7275933522687" y="0" width="0.06485896039930594" height="100%"></svg><line x1="345.7275933522687" x2="345.7275933522687" y1="12" y2="20" stroke="black" stroke-width="0.5"></line><svg x="345.792452312668" y="0" width="0.054999503952444684" height="100%"></svg><line x1="345.792452312668" x2="345.792452312668" y1="12" y2="20" stroke="black" stroke-width="0.5"></line><svg x="345.84745181662043" y="0" width="0.10560799225021356" height="100%"></svg><line x1="345.84745181662043" x2="345.84745181662043" y1="12" y2="20" stroke="black" stroke-width="0.5"></line><svg x="345.95305980887065" y="0" width="36.56647763157923" height="100%"><text x="18.283238815789616" y="17" text-anchor="middle" font-family="sans-serif" font-size="6pt">tig0000...</text></svg><line x1="345.95305980887065" x2="345.95305980887065" y1="12" y2="20" stroke="black" stroke-width="0.5"></line><svg x="382.5195374404499" y="0" width="0.06868585251498871" height="100%"></svg><line x1="382.5195374404499" x2="382.5195374404499" y1="12" y2="20" stroke="black" stroke-width="0.5"></line><svg x="382.58822329296487" y="0" width="0.13912760307249528" height="100%"></svg><line x1="382.58822329296487" x2="382.58822329296487" y1="12" y2="20" stroke="black" stroke-width="0.5"></line><svg x="382.72735089603736" y="0" width="64.09134835187064" height="100%"><text x="32.04567417593532" y="17" text-anchor="middle" font-family="sans-serif" font-size="6pt">tig00000575</text></svg><line x1="382.72735089603736" x2="382.72735089603736" y1="12" y2="20" stroke="black" stroke-width="0.5"></line><rect x="446.818699247908" y="12" width="2.0408693680415126" height="8" fill="#969696" stroke="#969696"></rect><svg x="448.8595686159495" y="0" width="2.8135254930552946" height="100%"></svg><line x1="448.8595686159495" x2="448.8595686159495" y1="12" y2="20" stroke="black" stroke-width="0.5"></line><rect x="451.6730941090048" y="12" width="0.6580348616251399" height="8" fill="#969696" stroke="#969696"></rect><svg x="452.33112897062995" y="0" width="1.603195899100399" height="100%"></svg><line x1="452.33112897062995" x2="452.33112897062995" y1="12" y2="20" stroke="black" stroke-width="0.5"></line><rect x="453.93432486973035" y="12" width="1.301666785327427" height="8" fill="#969696" stroke="#969696"></rect><svg x="455.2359916550578" y="0" width="6.583636795798441" height="100%"></svg><line x1="455.2359916550578" x2="455.2359916550578" y1="12" y2="20" stroke="black" stroke-width="0.5"></line><svg x="461.8196284508562" y="0" width="2.1141469828759796" height="100%"></svg><line x1="461.8196284508562" x2="461.8196284508562" y1="12" y2="20" stroke="black" stroke-width="0.5"></line><svg x="463.9337754337322" y="0" width="0.44692052100560886" height="100%"></svg><line x1="463.9337754337322" x2="463.9337754337322" y1="12" y2="20" stroke="black" stroke-width="0.5"></line><svg x="464.3806959547378" y="0" width="0.08313707128127135" height="100%"></svg><line x1="464.3806959547378" x2="464.3806959547378" y1="12" y2="20" stroke="black" stroke-width="0.5"></line><svg x="464.4638330260191" y="0" width="4.820616058378278" height="100%"></svg><line x1="464.4638330260191" x2="464.4638330260191" y1="12" y2="20" stroke="black" stroke-width="0.5"></line><svg x="469.28444908439735" y="0" width="0.0701393600118081" height="100%"></svg><line x1="469.28444908439735" x2="469.28444908439735" y1="12" y2="20" stroke="black" stroke-width="0.5"></line><svg x="469.35458844440916" y="0" width="3.6412268617679047" height="100%"></svg><line x1="469.35458844440916" x2="469.35458844440916" y1="12" y2="20" stroke="black" stroke-width="0.5"></line><svg x="472.99581530617706" y="0" width="3.0569829165756914" height="100%"></svg><line x1="472.99581530617706" x2="472.99581530617706" y1="12" y2="20" stroke="black" stroke-width="0.5"></line><rect x="476.05279822275276" y="12" width="1.6597810475947767" height="8" fill="#969696" stroke="#969696"></rect><svg x="477.71257927034753" y="0" width="1.4227729283171584" height="100%"></svg><line x1="477.71257927034753" x2="477.71257927034753" y1="12" y2="20" stroke="black" stroke-width="0.5"></line><rect x="479.1353521986647" y="12" width="0.383667533924438" height="8" fill="#969696" stroke="#969696"></rect><svg x="479.51901973258913" y="0" width="1.0069274827982895" height="100%"></svg><line x1="479.51901973258913" x2="479.51901973258913" y1="12" y2="20" stroke="black" stroke-width="0.5"></line><rect x="480.5259472153874" y="12" width="2.1454812502589675" height="8" fill="#969696" stroke="#969696"></rect><svg x="482.6714284656464" y="0" width="1.3072114590302704" height="100%"></svg><line x1="482.6714284656464" x2="482.6714284656464" y1="12" y2="20" stroke="black" stroke-width="0.5"></line><svg x="483.97863992467666" y="0" width="0.07921615857577535" height="100%"></svg><line x1="483.97863992467666" x2="483.97863992467666" y1="12" y2="20" stroke="black" stroke-width="0.5"></line><svg x="484.05785608325243" y="0" width="0.5564646725434841" height="100%"></svg><line x1="484.05785608325243" x2="484.05785608325243" y1="12" y2="20" stroke="black" stroke-width="0.5"></line><svg x="484.6143207557959" y="0" width="1.6389592985933632" height="100%"></svg><line x1="484.6143207557959" x2="484.6143207557959" y1="12" y2="20" stroke="black" stroke-width="0.5"></line><rect x="486.2532800543893" y="12" width="3.3361452943576637" height="8" fill="#969696" stroke="#969696"></rect><svg x="489.58942534874694" y="0" width="1.3291335030423852" height="100%"></svg><line x1="489.58942534874694" x2="489.58942534874694" y1="12" y2="20" stroke="black" stroke-width="0.5"></line><rect x="490.9185588517893" y="12" width="9.081441148210672" height="8" fill="#969696" stroke="#969696"></rect></svg><svg class="right-axis" width="5" height="90" x="95" y="5" viewBox="0 0 20 500" preserveAspectRatio="none"><g transform="translate(20)rotate(90)"><text x="250" y="7.5" font-size="6pt" font-family="sans-serif" font-style="italic" text-anchor="middle">dmel-all-chromosome-r6.12</text><svg x="495.15700367147207" y="0" width="4.6899342542068325" height="100%"><text x="2.3449671271034163" y="17" text-anchor="middle" font-family="sans-serif" font-size="6pt">4</text></svg><line x1="495.15700367147207" x2="495.15700367147207" y1="12" y2="20" stroke="black" stroke-width="0.5" class="whereis"></line><rect x="499.8469379256789" y="12" width="0.15306207432109886" height="8" fill="#969696" stroke="None"></rect><rect x="481.48251212052776" y="12" width="13.67449155094431" height="8" fill="#969696" stroke="None"></rect><svg x="369.8835997678416" y="0" width="111.59891235268617" height="100%"><text x="55.799456176343085" y="17" text-anchor="middle" font-family="sans-serif" font-size="6pt">3R</text></svg><line x1="369.8835997678416" x2="369.8835997678416" y1="12" y2="20" stroke="black" stroke-width="0.5" class="whereis"></line><rect x="369.67672697108765" y="12" width="0.20687279675394166" height="8" fill="#969696" stroke="None"></rect><svg x="271.8856988730543" y="0" width="97.79102809803334" height="100%"><text x="48.89551404901667" y="17" text-anchor="middle" font-family="sans-serif" font-size="6pt">3L</text></svg><line x1="271.8856988730543" x2="271.8856988730543" y1="12" y2="20" stroke="black" stroke-width="0.5" class="whereis"></line><rect x="270.67958795653414" y="12" width="1.2061109165201742" height="8" fill="#969696" stroke="None"></rect><svg x="182.71034214115275" y="0" width="87.96924581538138" height="100%"><text x="43.98462290769069" y="17" text-anchor="middle" font-family="sans-serif" font-size="6pt">2R</text></svg><line x1="182.71034214115275" x2="182.71034214115275" y1="12" y2="20" stroke="black" stroke-width="0.5" class="whereis"></line><rect x="181.91870389604247" y="12" width="0.7916382451102777" height="8" fill="#969696" stroke="None"></rect><svg x="100.11822356263696" y="0" width="81.80048033340552" height="100%"><text x="40.90024016670276" y="17" text-anchor="middle" font-family="sans-serif" font-size="6pt">2L</text></svg><line x1="100.11822356263696" x2="100.11822356263696" y1="12" y2="20" stroke="black" stroke-width="0.5" class="whereis"></line><rect x="98.87485773103191" y="12" width="1.2433658316050469" height="8" fill="#969696" stroke="None"></rect><svg x="16.97502515933064" y="0" width="81.89983257170127" height="100%"><text x="40.949916285850634" y="17" text-anchor="middle" font-family="sans-serif" font-size="6pt">X</text></svg><line x1="16.97502515933064" x2="16.97502515933064" y1="12" y2="20" stroke="black" stroke-width="0.5" class="whereis"></line><rect x="16.54608398555473" y="12" width="0.428941173775911" height="8" fill="#969696" stroke="None"></rect><svg x="3.7879471523879715" y="0" width="12.758136833166759" height="100%"><text x="6.3790684165833795" y="17" text-anchor="middle" font-family="sans-serif" font-size="6pt">Y</text></svg><line x1="3.7879471523879715" x2="3.7879471523879715" y1="12" y2="20" stroke="black" stroke-width="0.5" class="whereis"></line><rect x="0" y="12" width="3.7879471523879715" height="8" fill="#969696" stroke="None"></rect></g></svg></svg>